<?xml version="1.0"?><svg fill="#000000" xmlns="http://www.w3.org/2000/svg"  viewBox="0 0 50 50" width="150px" height="150px">    <path d="M 10.033203 1 A 1.0001 1.0001 0 0 0 9.0664062 2.359375 L 13.199219 13.105469 C 13.72813 14.479899 14 15.940871 14 17.414062 L 14 22.611328 L 9.6679688 21.167969 L 6.8574219 16.486328 A 1.0001 1.0001 0 0 0 5.0292969 17.242188 L 7.0292969 25.242188 A 1.0001 1.0001 0 0 0 7.390625 25.792969 L 13.449219 30.453125 L 13.121094 33.728516 A 1.0001 1.0001 0 0 0 13.121094 33.730469 C 13.051524 34.434332 12.903527 35.130307 12.679688 35.802734 C 11.694814 38.755193 9.7536466 41.297047 7.1640625 43.023438 L 5.4453125 44.167969 A 1.0001 1.0001 0 0 0 6 46 L 15 46 A 1.0001 1.0001 0 0 0 15.316406 45.949219 L 20.923828 44.080078 L 24.552734 45.894531 A 1.0001 1.0001 0 0 0 25.447266 45.894531 L 28.927734 44.154297 L 31.445312 45.832031 A 1.0001 1.0001 0 0 0 31.757812 45.970703 L 43.757812 48.970703 A 1.0001 1.0001 0 0 0 44.759766 47.349609 L 40.925781 42.878906 C 39.578882 41.307053 38.550539 39.488497 37.896484 37.525391 L 37.619141 36.693359 C 37.196744 35.428062 36.915848 34.120366 36.783203 32.792969 L 36.542969 30.386719 L 42.677734 24.736328 A 1.0001 1.0001 0 0 0 42.970703 24.242188 L 44.970703 16.242188 A 1.0001 1.0001 0 0 0 43.142578 15.486328 L 40.292969 20.236328 L 36 22.382812 L 36 16.740234 C 36 15.673046 36.141231 14.61332 36.421875 13.583984 L 38.964844 4.2636719 A 1.0001 1.0001 0 0 0 37.191406 3.4121094 L 31 11.925781 L 31 8.0820312 L 31.986328 2.1640625 A 1.0001 1.0001 0 0 0 30.232422 1.359375 L 25.232422 7.359375 A 1.0001 1.0001 0 0 0 25.019531 7.8046875 L 24.552734 10.134766 L 20.875 3.5136719 A 1.0001 1.0001 0 0 0 19 4 L 19 10.414062 L 10.740234 1.328125 A 1.0001 1.0001 0 0 0 10.033203 1 z M 29.408203 5.4726562 L 29.013672 7.8359375 A 1.0001 1.0001 0 0 0 29 8 L 29 15 A 1.0001 1.0001 0 0 0 30.808594 15.587891 L 35.599609 9 L 34.494141 13.056641 C 34.166785 14.257305 34 15.495422 34 16.740234 L 34 24 A 1.0001 1.0001 0 0 0 35.447266 24.894531 L 41.447266 21.894531 A 1.0001 1.0001 0 0 0 41.501953 21.863281 L 41.101562 23.466797 L 34.822266 29.253906 A 1.0001 1.0001 0 0 0 34.503906 30.087891 L 34.794922 32.992188 C 34.942277 34.466789 35.2511 35.919469 35.720703 37.326172 L 35.998047 38.158203 C 36.73402 40.366447 37.893491 42.411994 39.408203 44.179688 L 41.199219 46.269531 L 32.410156 44.072266 L 29.554688 42.167969 A 1.0001 1.0001 0 0 0 28.552734 42.105469 L 25 43.882812 L 21.447266 42.105469 A 1.0001 1.0001 0 0 0 20.683594 42.050781 L 14.837891 44 L 9.0058594 44 C 11.463309 42.126076 13.37745 39.647955 14.419922 36.728516 A 1.0001 1.0001 0 0 0 14.576172 36.433594 C 14.846331 35.622022 15.026901 34.781871 15.111328 33.927734 L 15.494141 30.099609 A 1.0001 1.0001 0 0 0 15.109375 29.207031 L 8.8847656 24.419922 L 8.4960938 22.865234 A 1.0001 1.0001 0 0 0 8.6835938 22.949219 L 14.683594 24.949219 A 1.0001 1.0001 0 0 0 16 24 L 16 17.414062 C 16 15.695256 15.683495 13.992242 15.066406 12.388672 L 12.847656 6.6191406 L 19.259766 13.671875 A 1.0001 1.0001 0 0 0 21 13 L 21 7.8613281 L 24.125 13.486328 A 1.0001 1.0001 0 0 0 25.980469 13.195312 L 26.931641 8.4453125 L 29.408203 5.4726562 z M 18 20 C 18 20 18.25 23 21 23 C 23 23 23 21 23 21 L 18 20 z M 32 20 L 27 21 C 27 21 27 23 29 23 C 31.75 23 32 20 32 20 z M 19.982422 26 A 1.0001 1.0001 0 0 0 19.005859 26.900391 L 18.005859 36.900391 A 1.0001 1.0001 0 0 0 19.599609 37.800781 L 22.753906 35.433594 L 24.167969 37.554688 A 1.0001 1.0001 0 0 0 25.832031 37.554688 L 27.246094 35.433594 L 30.400391 37.800781 A 1.0001 1.0001 0 0 0 31.994141 36.900391 L 30.994141 26.900391 A 1.0001 1.0001 0 0 0 29.167969 26.445312 L 27.84375 28.429688 L 25.707031 26.292969 A 1.0001 1.0001 0 0 0 24.292969 26.292969 L 22.15625 28.429688 L 20.832031 26.445312 A 1.0001 1.0001 0 0 0 19.982422 26 z M 25 28.414062 L 27.292969 30.707031 A 1.0001 1.0001 0 0 0 28.832031 30.554688 L 29.283203 29.876953 L 29.779297 34.833984 L 27.599609 33.199219 A 1.0001 1.0001 0 0 0 26.167969 33.445312 L 25 35.197266 L 23.832031 33.445312 A 1.0001 1.0001 0 0 0 22.400391 33.199219 L 20.220703 34.833984 L 20.716797 29.876953 L 21.167969 30.554688 A 1.0001 1.0001 0 0 0 22.707031 30.707031 L 25 28.414062 z"/></svg>