<svg fill="#000000" xmlns="http://www.w3.org/2000/svg"  viewBox="0 0 50 50" width="150px" height="150px"><path d="M 4.5 5.035156 C 2.046875 5.035156 0.0351563 7.046875 0.0351563 9.5 C 0.0351563 10.195313 0.195313 10.863281 0.484375 11.453125 C 1.210938 12.941406 2.746094 13.964844 4.5 13.964844 C 5.742188 13.964844 6.867188 13.449219 7.679688 12.621094 C 9.625 14.207031 10.488281 15.855469 10.796875 17.613281 C 11.136719 19.558594 10.753906 21.699219 10.105469 23.921875 C 9.457031 26.148438 8.542969 28.429688 7.945313 30.675781 C 7.398438 32.71875 7.105469 34.773438 7.628906 36.722656 C 7.0625 37.097656 6.570313 37.601563 6.203125 38.21875 C 4.886719 40.433594 5.621094 43.324219 7.835938 44.640625 C 8.21875 44.871094 15.246094 48.996094 25 48.996094 C 34.753906 48.996094 41.757813 44.886719 42.167969 44.640625 C 44.378906 43.324219 45.113281 40.433594 43.796875 38.21875 C 43.34375 37.460938 42.699219 36.890625 41.96875 36.5 C 42.042969 35.453125 41.707031 34.433594 41.222656 33.464844 C 40.65625 32.316406 39.863281 31.195313 39.074219 30.066406 C 37.488281 27.808594 35.988281 25.519531 35.996094 23.625 C 35.996094 22.621094 36.339844 21.71875 37.332031 20.761719 C 38.242188 19.886719 39.765625 19.007813 41.980469 18.226563 C 42.796875 19.28125 44.070313 19.964844 45.5 19.964844 C 47.953125 19.964844 49.964844 17.953125 49.964844 15.5 C 49.964844 13.046875 47.953125 11.035156 45.5 11.035156 C 43.5625 11.035156 41.921875 12.292969 41.308594 14.027344 C 32.96875 13.925781 28.039063 18.429688 25.390625 22.941406 C 25.222656 23.226563 25.089844 23.511719 24.9375 23.796875 C 24.203125 21.15625 23.011719 18.324219 21.078125 15.804688 C 18.496094 12.445313 14.566406 9.679688 8.894531 8.804688 C 8.554688 6.679688 6.714844 5.035156 4.5 5.035156 Z M 4.5 6.964844 C 5.910156 6.964844 7.035156 8.089844 7.035156 9.5 C 7.035156 10.910156 5.910156 12.035156 4.5 12.035156 C 3.492188 12.035156 2.628906 11.453125 2.21875 10.609375 C 2.054688 10.273438 1.964844 9.902344 1.964844 9.5 C 1.964844 8.089844 3.089844 6.964844 4.5 6.964844 Z M 8.734375 10.835938 C 13.824219 11.660156 17.214844 14.035156 19.5 17.015625 C 21.835938 20.054688 23.027344 23.714844 23.585938 26.796875 C 22.445313 29.859375 22.167969 32.277344 22.167969 32.277344 C 22.164063 32.277344 21.738281 36.066406 21.957031 39.792969 C 19.730469 39.492188 17.765625 38.910156 16.226563 38.320313 C 15.121094 37.894531 14.234375 37.46875 13.617188 37.144531 C 13.308594 36.984375 13.070313 36.851563 12.90625 36.753906 C 12.742188 36.660156 12.742188 36.65625 12.613281 36.578125 C 12.0625 36.253906 11.46875 36.054688 10.863281 35.972656 C 10.40625 35.914063 9.941406 35.921875 9.492188 35.996094 C 9.179688 34.609375 9.382813 32.992188 9.867188 31.1875 C 10.421875 29.109375 11.328125 26.828125 12.015625 24.484375 C 12.699219 22.136719 13.175781 19.699219 12.753906 17.273438 C 12.359375 15.023438 11.066406 12.851563 8.695313 10.96875 C 8.710938 10.925781 8.722656 10.878906 8.734375 10.835938 Z M 45.5 12.964844 C 46.910156 12.964844 48.035156 14.089844 48.035156 15.5 C 48.035156 16.910156 46.910156 18.035156 45.5 18.035156 C 44.492188 18.035156 43.628906 17.453125 43.21875 16.609375 C 43.054688 16.273438 42.964844 15.898438 42.964844 15.5 C 42.964844 14.089844 44.089844 12.964844 45.5 12.964844 Z M 40.433594 16.007813 C 40.636719 16.003906 40.855469 16.011719 41.0625 16.015625 C 41.082031 16.152344 41.105469 16.285156 41.136719 16.417969 C 38.835938 17.246094 37.121094 18.203125 35.953125 19.328125 C 34.644531 20.59375 34.011719 22.105469 34.003906 23.617188 C 33.996094 26.460938 35.859375 28.953125 37.441406 31.207031 C 38.234375 32.335938 38.976563 33.40625 39.445313 34.347656 C 39.746094 34.957031 39.910156 35.480469 39.964844 35.941406 C 39.082031 35.90625 38.183594 36.105469 37.375 36.589844 C 37.371094 36.589844 37.367188 36.589844 37.367188 36.59375 C 37.257813 36.65625 37.328125 36.617188 37.285156 36.640625 C 37.246094 36.664063 37.1875 36.699219 37.109375 36.746094 C 36.953125 36.839844 36.71875 36.972656 36.417969 37.132813 C 35.808594 37.453125 34.921875 37.878906 33.816406 38.304688 C 31.605469 39.15625 28.511719 40.003906 25 40.003906 C 24.648438 40.003906 24.308594 39.992188 23.96875 39.976563 C 23.722656 36.421875 24.140625 32.496094 24.140625 32.496094 C 24.144531 32.496094 24.144531 32.496094 24.140625 32.496094 C 24.140625 32.496094 24.410156 30.238281 25.472656 27.40625 C 25.539063 27.300781 25.582031 27.179688 25.601563 27.058594 C 25.996094 26.058594 26.488281 25 27.109375 23.949219 C 29.429688 19.992188 33.332031 16.191406 40.433594 16.007813 Z M 10.074219 37.917969 C 10.589844 37.886719 11.121094 38.007813 11.601563 38.292969 C 11.605469 38.292969 11.605469 38.292969 11.609375 38.296875 C 11.507813 38.234375 11.714844 38.363281 11.902344 38.472656 C 12.089844 38.582031 12.359375 38.730469 12.695313 38.90625 C 13.371094 39.261719 14.324219 39.722656 15.515625 40.175781 C 17.890625 41.089844 21.191406 41.996094 25 41.996094 C 28.832031 41.996094 32.152344 41.078125 34.53125 40.160156 C 35.722656 39.703125 36.675781 39.242188 37.34375 38.890625 C 37.675781 38.714844 37.9375 38.566406 38.117188 38.460938 C 38.207031 38.40625 38.277344 38.363281 38.328125 38.332031 C 38.375 38.304688 38.457031 38.257813 38.390625 38.296875 C 39.035156 37.914063 39.765625 37.824219 40.433594 37.996094 C 41.101563 38.164063 41.703125 38.589844 42.089844 39.234375 C 42.855469 40.527344 42.441406 42.167969 41.148438 42.9375 C 41.148438 42.933594 41.148438 42.933594 41.144531 42.9375 C 40.976563 43.035156 34.1875 47.003906 25 47.003906 C 15.8125 47.003906 9.042969 43.050781 8.851563 42.9375 C 8.851563 42.933594 8.851563 42.933594 8.851563 42.933594 C 7.5625 42.167969 7.144531 40.527344 7.914063 39.234375 C 8.390625 38.433594 9.210938 37.964844 10.074219 37.917969 Z"/></svg>