<?xml version="1.0" encoding="utf-8"?>
<svg xmlns="http://www.w3.org/2000/svg" xmlns:ev="http://www.w3.org/2001/xml-events" xmlns:xlink="http://www.w3.org/1999/xlink" baseProfile="tiny" height="718" version="1.2" viewBox="0 0 718 718" width="718">
  <defs/>
  <path d="M 495.00 578.00 L 494.00 577.00 L 494.00 576.00 L 494.00 575.00 L 494.00 574.00 L 494.00 573.00 L 494.00 572.00 L 494.00 571.00 L 494.00 570.00 L 494.00 569.00 L 494.00 568.00 L 494.00 567.00 L 494.00 566.00 L 494.00 565.00 L 494.00 564.00 L 494.00 563.00 L 494.00 562.00 L 494.00 561.00 L 494.00 560.00 L 494.00 559.00 L 494.00 558.00 L 494.00 557.00 L 494.00 556.00 L 494.00 555.00 L 494.00 554.00 L 494.00 553.00 L 494.00 552.00 L 494.00 551.00 L 494.00 550.00 L 494.00 549.00 L 494.00 548.00 L 494.00 547.00 L 494.00 546.00 L 494.00 545.00 L 494.00 544.00 L 494.00 543.00 L 494.00 542.00 L 494.00 541.00 L 494.00 540.00 L 494.00 539.00 L 494.00 538.00 L 494.00 537.00 L 494.00 536.00 L 494.00 535.00 L 494.00 534.00 L 494.00 533.00 L 494.00 532.00 L 494.00 531.00 L 494.00 530.00 L 494.00 529.00 L 494.00 528.00 L 494.00 527.00 L 494.00 526.00 L 494.00 525.00 L 494.00 524.00 L 494.00 523.00 L 494.00 522.00 L 494.00 521.00 L 494.00 520.00 L 494.00 519.00 L 494.00 518.00 L 494.00 517.00 L 494.00 516.00 L 494.00 515.00 L 494.00 514.00 L 494.00 513.00 L 494.00 512.00 L 494.00 511.00 L 494.00 510.00 L 494.00 509.00 L 494.00 508.00 L 494.00 507.00 L 494.00 506.00 L 494.00 505.00 L 494.00 504.00 L 494.00 503.00 L 494.00 502.00 L 494.00 501.00 L 494.00 500.00 L 494.00 499.00 L 494.00 498.00 L 494.00 497.00 L 494.00 496.00 L 494.00 495.00 L 494.00 494.00 L 494.00 493.00 L 494.00 492.00 L 494.00 491.00 L 494.00 490.00 L 494.00 489.00 L 495.00 488.00 L 496.00 489.00 L 496.00 489.00 L 497.00 489.00 L 498.00 490.00 L 498.00 490.00 L 499.00 491.00 L 499.00 491.00 L 500.00 491.00 L 501.00 492.00 L 501.00 492.00 L 502.00 492.00 L 503.00 493.00 L 503.00 493.00 L 504.00 494.00 L 504.00 494.00 L 505.00 494.00 L 506.00 495.00 L 506.00 495.00 L 507.00 495.00 L 508.00 496.00 L 508.00 496.00 L 509.00 496.00 L 510.00 497.00 L 510.00 497.00 L 511.00 498.00 L 511.00 498.00 L 512.00 498.00 L 513.00 499.00 L 513.00 499.00 L 514.00 499.00 L 515.00 500.00 L 515.00 500.00 L 516.00 501.00 L 516.00 501.00 L 517.00 501.00 L 518.00 502.00 L 518.00 502.00 L 519.00 502.00 L 520.00 503.00 L 520.00 503.00 L 521.00 504.00 L 521.00 504.00 L 522.00 504.00 L 523.00 505.00 L 523.00 505.00 L 524.00 505.00 L 525.00 506.00 L 525.00 506.00 L 526.00 507.00 L 526.00 507.00 L 527.00 507.00 L 528.00 508.00 L 528.00 508.00 L 529.00 508.00 L 530.00 509.00 L 530.00 509.00 L 531.00 509.00 L 532.00 510.00 L 532.00 510.00 L 533.00 511.00 L 533.00 511.00 L 534.00 511.00 L 535.00 512.00 L 535.00 512.00 L 536.00 512.00 L 537.00 513.00 L 537.00 513.00 L 538.00 514.00 L 538.00 514.00 L 539.00 514.00 L 540.00 515.00 L 540.00 515.00 L 541.00 515.00 L 542.00 516.00 L 542.00 516.00 L 543.00 517.00 L 543.00 517.00 L 544.00 517.00 L 545.00 518.00 L 545.00 518.00 L 546.00 518.00 L 547.00 519.00 L 547.00 519.00 L 548.00 519.00 L 549.00 520.00 L 549.00 520.00 L 550.00 521.00 L 550.00 521.00 L 551.00 521.00 L 552.00 522.00 L 552.00 522.00 L 553.00 522.00 L 554.00 523.00 L 554.00 523.00 L 555.00 524.00 L 555.00 524.00 L 556.00 524.00 L 557.00 525.00 L 557.00 525.00 L 558.00 525.00 L 559.00 526.00 L 559.00 526.00 L 560.00 527.00 L 560.00 527.00 L 561.00 527.00 L 562.00 528.00 L 562.00 528.00 L 563.00 528.00 L 564.00 529.00 L 564.00 529.00 L 565.00 530.00 L 565.00 530.00 L 566.00 530.00 L 567.00 531.00 L 567.00 531.00 L 568.00 531.00 L 569.00 532.00 L 569.00 532.00 L 570.00 533.00 L 569.00 534.00 L 569.00 534.00 L 568.00 535.00 L 567.00 535.00 L 567.00 535.00 L 566.00 536.00 L 566.00 536.00 L 565.00 537.00 L 564.00 537.00 L 564.00 537.00 L 563.00 538.00 L 562.00 538.00 L 562.00 538.00 L 561.00 539.00 L 561.00 539.00 L 560.00 540.00 L 559.00 540.00 L 559.00 540.00 L 558.00 541.00 L 557.00 541.00 L 557.00 541.00 L 556.00 542.00 L 555.00 542.00 L 555.00 542.00 L 554.00 543.00 L 554.00 543.00 L 553.00 544.00 L 552.00 544.00 L 552.00 544.00 L 551.00 545.00 L 550.00 545.00 L 550.00 545.00 L 549.00 546.00 L 549.00 546.00 L 548.00 547.00 L 547.00 547.00 L 547.00 547.00 L 546.00 548.00 L 545.00 548.00 L 545.00 548.00 L 544.00 549.00 L 544.00 549.00 L 543.00 550.00 L 542.00 550.00 L 542.00 550.00 L 541.00 551.00 L 540.00 551.00 L 540.00 551.00 L 539.00 552.00 L 538.00 552.00 L 538.00 552.00 L 537.00 553.00 L 537.00 553.00 L 536.00 554.00 L 535.00 554.00 L 535.00 554.00 L 534.00 555.00 L 533.00 555.00 L 533.00 555.00 L 532.00 556.00 L 532.00 556.00 L 531.00 557.00 L 530.00 557.00 L 530.00 557.00 L 529.00 558.00 L 528.00 558.00 L 528.00 558.00 L 527.00 559.00 L 527.00 559.00 L 526.00 560.00 L 525.00 560.00 L 525.00 560.00 L 524.00 561.00 L 523.00 561.00 L 523.00 561.00 L 522.00 562.00 L 522.00 562.00 L 521.00 563.00 L 520.00 563.00 L 520.00 563.00 L 519.00 564.00 L 518.00 564.00 L 518.00 564.00 L 517.00 565.00 L 516.00 565.00 L 516.00 565.00 L 515.00 566.00 L 515.00 566.00 L 514.00 567.00 L 513.00 567.00 L 513.00 567.00 L 512.00 568.00 L 511.00 568.00 L 511.00 568.00 L 510.00 569.00 L 510.00 569.00 L 509.00 570.00 L 508.00 570.00 L 508.00 570.00 L 507.00 571.00 L 506.00 571.00 L 506.00 571.00 L 505.00 572.00 L 505.00 572.00 L 504.00 573.00 L 503.00 573.00 L 503.00 573.00 L 502.00 574.00 L 501.00 574.00 L 501.00 574.00 L 500.00 575.00 L 499.00 575.00 L 499.00 575.00 L 498.00 576.00 L 498.00 576.00 L 497.00 577.00 L 496.00 577.00 L 496.00 577.00 L 495.00 578.00 Z" fill="white"/>
</svg>
