<svg fill="#000000" xmlns="http://www.w3.org/2000/svg"  viewBox="0 0 50 50" width="150px" height="150px"><path d="M 24.013672 0 A 1 1 0 0 0 24.013672 2 A 1 1 0 0 0 24.013672 0 z M 27.513672 4 A 1.5 1.5 0 0 0 27.513672 7 A 1.5 1.5 0 0 0 27.513672 4 z M 21.013672 6 A 2 2 0 0 0 21.013672 10 A 2 2 0 0 0 21.013672 6 z M 11.060547 12 C 9.9150295 12 8.9834129 12.998454 9.0664062 14.142578 A 1.0001 1.0001 0 0 0 9.0683594 14.154297 L 11.857422 47.212891 C 11.857422 47.212891 11.857422 47.214844 11.857422 47.214844 C 11.968694 48.775146 13.285316 50 14.849609 50 L 36.080078 50 C 37.671174 50 39.000203 48.731964 39.076172 47.142578 L 40.935547 14.103516 A 1.0001 1.0001 0 0 0 40.935547 14.095703 C 40.990935 12.96814 40.067371 12 38.939453 12 L 11.060547 12 z M 38.939453 13.990234 L 38.939453 14 L 38.490234 21.986328 C 36.614442 21.95121 35.619326 21.749556 34.554688 21.521484 C 33.387687 21.271484 32.082658 21 29.677734 21 C 27.272811 21 25.967642 21.271487 24.800781 21.521484 C 23.633921 21.771481 22.604389 22 20.341797 22 C 18.081266 22 17.052858 21.771487 15.886719 21.521484 C 14.836491 21.296331 13.630763 21.065529 11.654297 21.019531 L 11.0625 14 L 38.939453 14 L 38.9375 13.998047 L 38.939453 13.990234 z M 29.677734 23 C 31.939811 23 32.967766 23.228516 34.134766 23.478516 C 35.186977 23.703925 36.395283 23.936824 38.376953 23.982422 L 37.080078 47.039062 A 1.0001 1.0001 0 0 0 37.080078 47.046875 C 37.054047 47.591502 36.624982 48 36.080078 48 L 14.849609 48 C 14.31453 48 13.889218 47.605021 13.851562 47.072266 A 1.0001 1.0001 0 0 0 13.851562 47.058594 L 11.824219 23.021484 C 13.508625 23.071976 14.46162 23.262602 15.46875 23.478516 C 16.634861 23.728513 17.938327 24 20.341797 24 C 22.747205 24 24.051861 23.728519 25.21875 23.478516 C 26.385639 23.228513 27.415658 23 29.677734 23 z M 26.013672 26 A 2 2 0 0 0 26.013672 30 A 2 2 0 0 0 26.013672 26 z M 20.513672 31 A 1.5 1.5 0 0 0 20.513672 34 A 1.5 1.5 0 0 0 20.513672 31 z M 29.013672 32 A 1 1 0 0 0 29.013672 34 A 1 1 0 0 0 29.013672 32 z M 25.513672 35 A 1.5 1.5 0 0 0 25.513672 38 A 1.5 1.5 0 0 0 25.513672 35 z M 22.013672 40 A 1 1 0 0 0 22.013672 42 A 1 1 0 0 0 22.013672 40 z M 26.013672 44 A 1 1 0 0 0 26.013672 46 A 1 1 0 0 0 26.013672 44 z"/></svg>