<?xml version="1.0" encoding="UTF-8" standalone="no"?>
<svg
   fill="#000000"
   viewBox="0 0 50 50"
   width="150px"
   height="150px"
   version="1.1"
   id="svg48"
   xmlns="http://www.w3.org/2000/svg"
   xmlns:svg="http://www.w3.org/2000/svg">
  <defs
     id="defs52" />
  <path
     d="M37 24H39V26H37z"
     id="path44" />
  <path
     d="M 43.911,12.003 27.069,2.54 c -1.276,-0.717 -2.861,-0.717 -4.138,0 L 6.089,12.003 C 4.801,12.727 4,14.081 4,15.537 v 18.927 c 0,1.455 0.8,2.809 2.089,3.533 l 16.842,9.464 c 0.638,0.358 1.354,0.538 2.069,0.538 0.715,0 1.431,-0.179 2.069,-0.538 L 43.911,37.998 C 45.2,37.272 46,35.918 46,34.463 V 15.537 c 0,-1.456 -0.801,-2.81 -2.089,-3.534 z M 25,37 c -6.617,0 -12,-5.383 -12,-12 0,-6.617 5.383,-12 12,-12 3.78,0 7.275,1.755 9.542,4.741 l -4.38,2.536 C 28.844,18.837 26.973,18 25,18 c -3.86,0 -7,3.14 -7,7 0,3.86 3.14,7 7,7 1.973,0 3.844,-0.837 5.162,-2.277 l 4.38,2.536 C 32.275,35.245 28.78,37 25,37 Z"
     id="path46" />
</svg>
