<svg fill="#000000" xmlns="http://www.w3.org/2000/svg"  viewBox="0 0 50 50" width="150px" height="150px"><path d="M 25 9 C 13.851563 9 2 11.804688 2 17 C 2 18.117188 2.558594 19.109375 3.53125 20 C 2.519531 20.929688 2 21.921875 2 23 C 2 24.105469 2.546875 25.113281 3.5 26 C 2.5 26.925781 2 27.925781 2 29 C 2 30.109375 2.574219 31.082031 3.53125 31.96875 C 2.597656 32.828125 2 33.839844 2 35 C 2 36.390625 2.871094 37.589844 4.125 38.53125 C 5.378906 39.472656 7.0625 40.25 9.125 40.90625 C 13.246094 42.21875 18.839844 43 25 43 C 31.160156 43 36.753906 42.21875 40.875 40.90625 C 42.9375 40.25 44.621094 39.472656 45.875 38.53125 C 47.128906 37.589844 48 36.390625 48 35 C 48 33.855469 47.414063 32.851563 46.5 32 C 47.457031 31.113281 48 30.109375 48 29 C 48 27.921875 47.480469 26.929688 46.46875 26 C 47.433594 25.109375 48 24.113281 48 23 C 48 21.921875 47.480469 20.929688 46.46875 20 C 47.433594 19.109375 48 18.113281 48 17 C 48 11.804688 36.148438 9 25 9 Z M 25 11 C 38.011719 11 46 14.496094 46 17 C 46 18.976563 41.003906 21.558594 32.5 22.5625 L 32.5 24.5625 C 37.457031 23.992188 41.949219 22.851563 44.8125 21.1875 C 45.425781 21.675781 46 22.316406 46 23 C 46 24.976563 41.003906 27.558594 32.5 28.5625 L 32.5 30.5625 C 37.457031 29.992188 41.949219 28.851563 44.8125 27.1875 C 45.425781 27.675781 46 28.316406 46 29 C 46 30.976563 41.003906 33.558594 32.5 34.5625 L 32.5 36 C 32.5 36.199219 32.464844 36.398438 32.4375 36.59375 C 37.410156 36.027344 41.90625 34.855469 44.78125 33.1875 C 45.632813 33.859375 46 34.488281 46 35 C 46 35.542969 45.628906 36.207031 44.65625 36.9375 C 43.683594 37.667969 42.171875 38.390625 40.25 39 C 36.410156 40.222656 30.988281 41 25 41 C 19.011719 41 13.589844 40.222656 9.75 39 C 7.828125 38.390625 6.316406 37.667969 5.34375 36.9375 C 4.371094 36.207031 4 35.542969 4 35 C 4 34.496094 4.359375 33.882813 5.1875 33.21875 C 9.207031 35.554688 16.472656 36.855469 23.65625 37 C 23.570313 36.644531 23.5 36.28125 23.5 35.90625 L 23.5 34.96875 C 11.386719 34.710938 4 31.40625 4 29 C 4 28.324219 4.546875 27.675781 5.15625 27.1875 C 7.636719 28.640625 11.34375 29.6875 15.53125 30.3125 C 15.519531 30.171875 15.5 30.050781 15.5 29.90625 L 15.5 28.3125 C 8.222656 27.164063 4 24.816406 4 23 C 4 22.332031 4.554688 21.703125 5.15625 21.21875 C 7.628906 22.660156 11.339844 23.6875 15.5 24.3125 L 15.5 23.21875 C 13.027344 22.832031 11.15625 22.078125 9.96875 21.03125 C 6.140625 19.828125 4 18.289063 4 17 C 4 14.496094 11.988281 11 25 11 Z M 28 13 C 24.953125 13 22.269531 13.398438 20.28125 14.0625 C 19.863281 14.039063 19.445313 14 19 14 C 16.691406 14 14.605469 14.335938 13 14.9375 C 12.199219 15.238281 11.507813 15.613281 10.96875 16.09375 C 10.429688 16.574219 10 17.226563 10 18 C 10 19.21875 10.9375 20.054688 12.03125 20.625 C 13.125 21.195313 14.527344 21.59375 16.15625 21.8125 C 16.632813 21.875 17 22.3125 17 22.8125 L 17 29.90625 C 17 31.359375 17.988281 32.722656 19.5 32.96875 C 21.335938 33.265625 23 31.808594 23 30 L 23 27.09375 C 23 26.554688 23.359375 26.074219 23.8125 26 C 24.484375 25.890625 25 26.378906 25 27 L 25 35.90625 C 25 37.359375 25.988281 38.722656 27.5 38.96875 C 29.335938 39.265625 31 37.808594 31 36 L 31 21.75 C 31 21.234375 31.375 20.847656 31.90625 20.78125 C 33.796875 20.550781 35.417969 20.136719 36.65625 19.59375 C 37.277344 19.320313 37.792969 19.03125 38.21875 18.625 C 38.644531 18.21875 39 17.65625 39 17 C 39 16.136719 38.425781 15.488281 37.78125 15.03125 C 37.136719 14.574219 36.316406 14.199219 35.34375 13.90625 C 33.398438 13.324219 30.84375 13 28 13 Z M 28 15 C 30.679688 15 33.105469 15.339844 34.78125 15.84375 C 35.617188 16.09375 36.257813 16.398438 36.625 16.65625 C 36.992188 16.914063 37 17.035156 37 17 C 37 16.972656 37.015625 17.023438 36.84375 17.1875 C 36.671875 17.351563 36.324219 17.570313 35.84375 17.78125 C 34.886719 18.203125 33.410156 18.566406 31.65625 18.78125 C 30.160156 18.964844 29 20.226563 29 21.75 L 29 36 C 29 36.621094 28.484375 37.109375 27.8125 37 C 27.359375 36.925781 27 36.445313 27 35.90625 L 27 27 C 27 25.191406 25.335938 23.734375 23.5 24.03125 C 21.988281 24.277344 21 25.640625 21 27.09375 L 21 30 C 21 30.621094 20.484375 31.109375 19.8125 31 C 19.359375 30.925781 19 30.445313 19 29.90625 L 19 22.8125 C 19 21.339844 17.917969 20.042969 16.4375 19.84375 C 14.976563 19.648438 13.753906 19.253906 12.96875 18.84375 C 12.183594 18.433594 12 18.085938 12 18 C 12 17.945313 12.011719 17.832031 12.28125 17.59375 C 12.550781 17.355469 13.042969 17.054688 13.6875 16.8125 C 14.980469 16.328125 16.890625 16 19 16 C 19.457031 16 19.902344 16.003906 20.34375 16.03125 L 20.5625 16.0625 L 20.75 16 C 22.417969 15.417969 25.050781 15 28 15 Z"/></svg>