<svg fill="#000000" xmlns="http://www.w3.org/2000/svg"  viewBox="0 0 50 50" width="150px" height="150px"><path d="M 24 2 L 24 11 A 1.0001 1.0001 0 1 0 26 11 L 26 4.0996094 C 37.134764 4.6313129 46 13.732941 46 25 C 46 36.610633 36.610633 46 25 46 C 13.389367 46 4 36.610633 4 25 C 4 19.460835 6.1391423 14.434159 9.6367188 10.681641 A 1.0001 1.0001 0 1 0 8.1738281 9.3183594 C 4.3454045 13.425841 2 18.945165 2 25 C 2 37.691367 12.308633 48 25 48 C 37.691367 48 48 37.691367 48 25 C 48 12.309588 37.691422 2 25 2 L 24 2 z M 14 14 C 14 14 21.706906 25.949094 22.878906 27.121094 C 24.050906 28.293094 25.950094 28.292094 27.121094 27.121094 C 28.293094 25.950094 28.293094 24.050906 27.121094 22.878906 C 25.949094 21.706906 14 14 14 14 z"/></svg>