<svg fill="#000000" xmlns="http://www.w3.org/2000/svg"  viewBox="0 0 50 50" width="150px" height="150px"><path d="M 8.457031 8.078125 C 5.769531 8.203125 3.292969 9.347656 1.378906 10.839844 L 2.609375 12.417969 C 4.484375 10.957031 6.976563 9.921875 9.488281 10.089844 C 11.792969 10.242188 14.179688 11.367188 16.375 14.292969 C 14.285156 16.601563 13 19.648438 13 23 C 13 30.167969 18.832031 36 26 36 C 27.699219 36 29.316406 35.664063 30.804688 35.066406 C 33.433594 39.511719 36.707031 41.574219 39.914063 41.9375 C 43.226563 42.3125 46.324219 40.964844 48.613281 39.164063 L 47.375 37.59375 C 45.402344 39.148438 42.769531 40.246094 40.140625 39.953125 C 37.617188 39.667969 34.972656 38.136719 32.605469 34.175781 C 36.425781 31.910156 39 27.753906 39 23 C 39 15.832031 33.167969 10 26 10 C 22.90625 10 20.066406 11.089844 17.828125 12.902344 C 15.367188 9.730469 12.445313 8.277344 9.621094 8.09375 C 9.230469 8.066406 8.839844 8.0625 8.457031 8.078125 Z M 26 12 C 32.085938 12 37 16.914063 37 23 C 37 25.925781 35.855469 28.578125 34 30.546875 L 34 25 L 29 25 L 29 20 L 24 20 L 24 15 L 18.453125 15 C 20.421875 13.144531 23.074219 12 26 12 Z M 16.78125 17 L 22 17 L 22 22 L 27 22 L 27 27 L 32 27 L 32 32.21875 C 30.273438 33.34375 28.21875 34 26 34 C 19.914063 34 15 29.085938 15 23 C 15 20.78125 15.65625 18.726563 16.78125 17 Z"/></svg>