<svg fill="#000000" xmlns="http://www.w3.org/2000/svg"  viewBox="0 0 50 50" width="150px" height="150px"><path d="M 25 0 C 23.028069 0 21.128359 1.012681 19.330078 2.3945312 C 17.531797 3.7763817 15.821828 5.5711372 14.320312 7.3554688 C 11.857689 10.281939 10.030925 13.08403 9.4257812 14.039062 C 7.7849966 14.213523 6.3147004 14.996422 5.3105469 16.169922 C 4.1665239 17.50688 3.6505419 19.409628 4.2714844 21.310547 C 4.724193 22.697805 4.8936371 24.219905 5.6074219 25.587891 C 6.0930273 26.518565 6.9502097 27.29123 8.1679688 27.695312 C 8.0646492 28.406126 8 29.15345 8 30 C 8 34.966559 10.380035 42.132836 17.640625 44.933594 C 18.542891 45.281553 20.282204 46.135084 21.712891 47.050781 C 22.428234 47.50863 23.073205 47.9892 23.494141 48.394531 C 23.915076 48.799862 24 49.149382 24 49 A 1.0001 1.0001 0 0 0 25.371094 49.927734 C 25.371094 49.927734 26.748029 49.382826 28.125 48.28125 C 29.041336 47.548181 29.973039 46.494234 30.519531 45.177734 C 30.62237 45.323526 30.745043 45.477164 30.818359 45.605469 C 30.965151 45.862353 31 46.083333 31 46 A 1.0001 1.0001 0 0 0 32.40625 46.914062 C 32.40625 46.914062 42 42.5 42 30 C 42 29.189177 41.921162 28.431485 41.804688 27.703125 C 43.03685 27.301648 43.903323 26.525361 44.392578 25.587891 C 45.10648 24.219972 45.275365 22.697743 45.728516 21.310547 C 46.349458 19.409628 45.835429 17.50688 44.691406 16.169922 C 43.687253 14.996422 42.215371 14.213523 40.574219 14.039062 C 39.969075 13.08403 38.142311 10.281939 35.679688 7.3554688 C 34.178173 5.5711372 32.468203 3.7763816 30.669922 2.3945312 C 28.871641 1.012681 26.971931 2.9605947e-16 25 0 z M 25 2 C 26.247069 2 27.83339 2.7373191 29.451172 3.9804688 C 31.068954 5.2236183 32.704701 6.9288628 34.148438 8.6445312 C 36.15315 11.02684 37.471832 12.966893 38.28125 14.205078 C 37.861763 14.307155 37.452171 14.435415 37.066406 14.611328 C 34.132534 11.182058 29.819561 9 25 9 C 20.180904 9 15.869405 11.182631 12.935547 14.611328 C 12.549163 14.435244 12.138993 14.307178 11.71875 14.205078 C 12.528168 12.966893 13.84685 11.02684 15.851562 8.6445312 C 17.295298 6.9288628 18.931046 5.2236183 20.548828 3.9804688 C 22.16661 2.737319 23.752931 2 25 2 z M 25 11 C 32.734346 11 39 17.362294 39 25.255859 C 39 26.242688 38.893662 26.948251 38.746094 27.388672 C 38.598525 27.829093 38.448812 27.982376 38.298828 28.074219 C 37.998861 28.257904 37.190713 28.242989 35.910156 27.833984 C 34.116869 27.261216 31.659312 26.112872 28.824219 25.46875 C 28.92641 25.160002 29 24.83883 29 24.5 C 29 22.470678 27.107211 21 25 21 C 22.892789 21 21 22.470678 21 24.5 C 21 24.83919 21.073224 25.160047 21.175781 25.46875 C 18.340693 26.112898 15.883138 27.261296 14.089844 27.833984 C 12.809282 28.242932 12.001155 28.255942 11.701172 28.072266 C 11.55118 27.980427 11.401465 27.829013 11.253906 27.388672 C 11.106348 26.948331 11 26.242555 11 25.255859 C 11 17.362294 17.265654 11 25 11 z M 10.121094 16 C 10.668185 16 11.186957 16.100726 11.675781 16.269531 C 10.074225 18.713417 9.1211061 21.623076 9.0253906 24.748047 C 8.8625239 25.098457 8.7128323 25.450683 8.5917969 25.8125 C 7.9624131 25.60247 7.6706623 25.217524 7.3808594 24.662109 C 6.9206441 23.780095 6.7001195 22.302195 6.1738281 20.689453 C 5.7677706 19.446372 6.0796011 18.347745 6.8300781 17.470703 C 7.5805552 16.593661 8.7907872 16 10.121094 16 z M 39.878906 16 C 41.209213 16 42.421398 16.593661 43.171875 17.470703 C 43.922352 18.347745 44.234182 19.446372 43.828125 20.689453 C 43.301276 22.302257 43.079489 23.780028 42.619141 24.662109 C 42.324915 25.225879 42.026096 25.612514 41.376953 25.820312 C 41.258888 25.449157 41.12129 25.097082 40.974609 24.753906 C 40.879928 21.626703 39.926779 18.714949 38.324219 16.269531 C 38.812651 16.100602 39.331607 16 39.878906 16 z M 19 18 A 2 2 0 0 0 17 20 A 2 2 0 0 0 19 22 A 2 2 0 0 0 21 20 A 2 2 0 0 0 19 18 z M 31 18 A 2 2 0 0 0 29 20 A 2 2 0 0 0 31 22 A 2 2 0 0 0 33 20 A 2 2 0 0 0 31 18 z M 25 23 C 26.206789 23 27 23.767322 27 24.5 C 27 24.715502 26.935694 24.919884 26.816406 25.113281 C 26.222254 25.044255 25.617539 25 25 25 C 24.383139 25 23.779077 25.044392 23.185547 25.113281 C 23.06579 24.920248 23 24.716078 23 24.5 C 23 23.767322 23.793211 23 25 23 z M 25 27 C 28.83293 27 32.434848 28.824244 35.302734 29.740234 C 36.517946 30.128368 37.699427 30.414346 38.773438 30.041016 C 38.668763 30.368056 38.541813 30.683579 38.378906 30.972656 C 37.763895 32.063993 36.841522 32.8617 34.875 32.986328 C 32.908478 33.110956 29.863192 32.42731 25.453125 30.191406 L 25 29.962891 L 24.546875 30.191406 C 20.136808 32.42731 17.091522 33.110956 15.125 32.986328 C 13.158478 32.8617 12.236105 32.063993 11.621094 30.972656 C 11.458187 30.683579 11.331237 30.368056 11.226562 30.041016 C 12.300568 30.414298 13.482058 30.128308 14.697266 29.740234 C 17.565141 28.824376 21.167029 27 25 27 z M 25 32.160156 C 29.325656 34.291905 32.562189 35.134965 35 34.980469 C 37.316919 34.833634 38.929925 33.734949 39.867188 32.347656 C 39.055951 40.123248 34.35772 43.509877 32.521484 44.5625 C 32.299588 44.183402 32.039259 43.822512 31.78125 43.5 C 31.240619 42.824212 30.707031 42.292969 30.707031 42.292969 A 1.0001 1.0001 0 0 0 29 43 C 29 44.583333 27.998029 45.820326 26.875 46.71875 C 26.156054 47.293907 25.861984 47.377584 25.4375 47.585938 C 25.263485 47.368557 25.089521 47.15217 24.882812 46.953125 C 24.304842 46.396581 23.574797 45.868839 22.791016 45.367188 C 21.223452 44.363884 19.464109 43.492447 18.359375 43.066406 C 13.161615 41.061381 10.865406 36.452995 10.210938 32.46875 C 11.159526 33.799197 12.749832 34.837864 15 34.980469 C 17.437811 35.134965 20.674344 34.291905 25 32.160156 z"/></svg>