<svg fill="#000000" xmlns="http://www.w3.org/2000/svg"  viewBox="0 0 50 50" width="150px" height="150px"><path d="M 25 0.59375 L 24.28125 1.28125 L 13.28125 12.28125 C 12.882813 12.679688 12.882813 13.320313 13.28125 13.71875 C 13.679688 14.117188 14.320313 14.117188 14.71875 13.71875 L 24 4.4375 L 24 24 C 24 33.820313 19.230469 39.730469 14.40625 43.3125 C 9.582031 46.894531 4.78125 48.03125 4.78125 48.03125 C 4.398438 48.070313 4.070313 48.328125 3.941406 48.691406 C 3.8125 49.054688 3.90625 49.460938 4.175781 49.734375 C 4.449219 50.003906 4.855469 50.097656 5.21875 49.96875 C 5.21875 49.96875 10.417969 48.75 15.59375 44.90625 C 20.769531 41.0625 26 34.476563 26 24 L 26 4.4375 L 35.28125 13.71875 C 35.679688 14.117188 36.320313 14.117188 36.71875 13.71875 C 37.117188 13.320313 37.117188 12.679688 36.71875 12.28125 L 25.71875 1.28125 Z M 26.8125 30.5 C 26.511719 31.699219 26.210938 32.804688 25.8125 33.90625 C 30.8125 46.605469 44.613281 49.898438 44.8125 50 L 45 50 C 45.5 50 45.898438 49.6875 46 49.1875 C 46.101563 48.6875 45.789063 48.199219 45.1875 48 C 44.488281 47.800781 30.3125 44.300781 26.8125 30.5 Z"/></svg>