<svg fill="#000000" xmlns="http://www.w3.org/2000/svg"  viewBox="0 0 50 50" width="150px" height="150px"><path d="M 13 5 L 13 6 L 13 23 L 37 23 L 37 5 L 13 5 z M 15 7 L 35 7 L 35 21 L 15 21 L 15 7 z M 24.984375 24.986328 A 1.0001 1.0001 0 0 0 24 26 L 24 39.65625 L 20.671875 36.328125 A 1.0001 1.0001 0 0 0 19.953125 36.025391 A 1.0001 1.0001 0 0 0 19.257812 37.744141 L 25 43.484375 L 30.742188 37.744141 A 1.0005843 1.0005843 0 1 0 29.328125 36.328125 L 26 39.65625 L 26 26 A 1.0001 1.0001 0 0 0 24.984375 24.986328 z M 3 27 L 3 28 L 3 45 L 15 45 L 15 27 L 3 27 z M 35 27 L 35 28 L 35 45 L 47 45 L 47 27 L 35 27 z M 5 29 L 13 29 L 13 43 L 5 43 L 5 29 z M 37 29 L 45 29 L 45 43 L 37 43 L 37 29 z"/></svg>