<svg fill="#000000" xmlns="http://www.w3.org/2000/svg"  viewBox="0 0 50 50" width="150px" height="150px"><path d="M 4 4 A 1 1 0 0 0 4 6 A 1 1 0 0 0 4 4 z M 8 4 A 1 1 0 0 0 8 6 A 1 1 0 0 0 8 4 z M 12 4 A 1 1 0 0 0 12 6 A 1 1 0 0 0 12 4 z M 16 4 A 1 1 0 0 0 16 6 A 1 1 0 0 0 17 5 L 17 44.970703 A 1 1 0 0 0 16 44 A 1 1 0 0 0 16 46 A 1 1 0 0 0 17 45 A 1.0001 1.0001 0 0 0 18 46 L 32 46 A 1.0001 1.0001 0 0 0 33 45.029297 A 1 1 0 0 0 34 46 A 1 1 0 0 0 34 44 A 1 1 0 0 0 33 45 L 33 5.0292969 A 1 1 0 0 0 34 6 A 1 1 0 0 0 34 4 A 1 1 0 0 0 33 5 A 1.0001 1.0001 0 0 0 32 4 L 18 4 A 1.0001 1.0001 0 0 0 17 4.9707031 A 1 1 0 0 0 16 4 z M 38 4 A 1 1 0 0 0 38 6 A 1 1 0 0 0 38 4 z M 42 4 A 1 1 0 0 0 42 6 A 1 1 0 0 0 42 4 z M 46 4 A 1 1 0 0 0 46 6 A 1 1 0 0 0 46 4 z M 19 6 L 31 6 L 31 44 L 19 44 L 19 6 z M 4 8 A 1 1 0 0 0 4 10 A 1 1 0 0 0 4 8 z M 46 8 A 1 1 0 0 0 46 10 A 1 1 0 0 0 46 8 z M 4 12 A 1 1 0 0 0 4 14 A 1 1 0 0 0 4 12 z M 46 12 A 1 1 0 0 0 46 14 A 1 1 0 0 0 46 12 z M 4 16 A 1 1 0 0 0 4 18 A 1 1 0 0 0 4 16 z M 46 16 A 1 1 0 0 0 46 18 A 1 1 0 0 0 46 16 z M 4 20 A 1 1 0 0 0 4 22 A 1 1 0 0 0 4 20 z M 46 20 A 1 1 0 0 0 46 22 A 1 1 0 0 0 46 20 z M 4 24 A 1 1 0 0 0 4 26 A 1 1 0 0 0 4 24 z M 46 24 A 1 1 0 0 0 46 26 A 1 1 0 0 0 46 24 z M 4 28 A 1 1 0 0 0 4 30 A 1 1 0 0 0 4 28 z M 46 28 A 1 1 0 0 0 46 30 A 1 1 0 0 0 46 28 z M 4 32 A 1 1 0 0 0 4 34 A 1 1 0 0 0 4 32 z M 46 32 A 1 1 0 0 0 46 34 A 1 1 0 0 0 46 32 z M 4 36 A 1 1 0 0 0 4 38 A 1 1 0 0 0 4 36 z M 46 36 A 1 1 0 0 0 46 38 A 1 1 0 0 0 46 36 z M 4 40 A 1 1 0 0 0 4 42 A 1 1 0 0 0 4 40 z M 46 40 A 1 1 0 0 0 46 42 A 1 1 0 0 0 46 40 z M 4 44 A 1 1 0 0 0 4 46 A 1 1 0 0 0 4 44 z M 8 44 A 1 1 0 0 0 8 46 A 1 1 0 0 0 8 44 z M 12 44 A 1 1 0 0 0 12 46 A 1 1 0 0 0 12 44 z M 38 44 A 1 1 0 0 0 38 46 A 1 1 0 0 0 38 44 z M 42 44 A 1 1 0 0 0 42 46 A 1 1 0 0 0 42 44 z M 46 44 A 1 1 0 0 0 46 46 A 1 1 0 0 0 46 44 z"/></svg>