<svg xmlns="http://www.w3.org/2000/svg"  viewBox="0 0 4335 4335" width="150px" height="150px" fill-rule="evenodd" clip-rule="evenodd" image-rendering="optimizeQuality" shape-rendering="geometricPrecision" text-rendering="geometricPrecision"><path fill="none" stroke="#000" stroke-width="50" d="M443 365l3463 0c199,0 361,163 361,361l0 2677c0,198 -163,361 -361,361l-3463 0c-198,0 -361,-163 -361,-361l0 -2677c0,-199 163,-361 361,-361z"/><path fill-rule="nonzero" d="M1224 2485l0 -1165 147 0 0 1165 -147 0zm338 -395l0 -17c0,-119 32,-218 97,-295 65,-77 152,-116 264,-116 112,0 200,38 265,116 65,77 97,176 97,295l0 17c0,120 -32,219 -97,295 -65,77 -153,115 -264,115 -112,0 -200,-38 -265,-115 -65,-77 -97,-175 -97,-295zm147 -1c0,85 18,156 54,211 36,56 90,83 161,83 70,0 123,-28 160,-83 36,-56 55,-126 55,-211l0 -16c0,-84 -18,-154 -55,-211 -36,-56 -90,-84 -161,-84 -70,0 -124,28 -160,84 -36,56 -54,126 -54,211l0 16zm731 22l0 -16c0,-130 28,-234 83,-314 56,-80 133,-119 232,-119 52,0 97,10 136,31 39,21 71,50 98,89l18 -105 116 0 0 812c0,103 -30,183 -90,238 -60,55 -147,83 -260,83 -39,0 -81,-5 -126,-16 -45,-11 -85,-25 -119,-44l22 -114c28,15 62,27 103,36 40,9 80,14 118,14 72,0 124,-16 156,-49 33,-33 49,-82 49,-149l0 -92c-27,34 -58,59 -95,77 -37,18 -80,26 -128,26 -99,0 -176,-36 -231,-107 -55,-71 -83,-165 -83,-282zm147 0c0,81 17,146 50,195 33,49 85,74 155,74 44,0 82,-10 111,-30 30,-20 55,-49 74,-85l0 -372c-19,-34 -44,-61 -74,-82 -30,-20 -67,-30 -110,-30 -70,0 -122,29 -156,87 -34,58 -50,134 -50,227l0 16z"/></svg>