<?xml version="1.0" encoding="utf-8"?>
<svg xmlns="http://www.w3.org/2000/svg" xmlns:ev="http://www.w3.org/2001/xml-events" xmlns:xlink="http://www.w3.org/1999/xlink" baseProfile="tiny" height="718" version="1.2" viewBox="0 0 718 718" width="718">
  <defs/>
  <path d="M 571.00 377.00 L 571.00 376.00 L 571.00 375.00 L 571.00 374.00 L 571.00 373.00 L 571.00 372.00 L 571.00 371.00 L 571.00 370.00 L 571.00 369.00 L 571.00 368.00 L 571.00 367.00 L 571.00 366.00 L 571.00 365.00 L 571.00 364.00 L 571.00 363.00 L 571.00 362.00 L 571.00 361.00 L 571.00 360.00 L 571.00 359.00 L 571.00 358.00 L 571.00 357.00 L 571.00 356.00 L 571.00 355.00 L 571.00 354.00 L 571.00 353.00 L 571.00 352.00 L 571.00 351.00 L 571.00 350.00 L 571.00 349.00 L 571.00 348.00 L 571.00 347.00 L 571.00 346.00 L 571.00 345.00 L 571.00 344.00 L 571.00 343.00 L 571.00 342.00 L 571.00 341.00 L 571.00 340.00 L 571.00 339.00 L 571.00 338.00 L 571.00 337.00 L 571.00 336.00 L 571.00 335.00 L 571.00 334.00 L 571.00 333.00 L 571.00 332.00 L 571.00 331.00 L 571.00 330.00 L 571.00 329.00 L 571.00 328.00 L 571.00 327.00 L 571.00 326.00 L 571.00 325.00 L 571.00 324.00 L 571.00 323.00 L 571.00 322.00 L 571.00 321.00 L 571.00 320.00 L 571.00 319.00 L 571.00 318.00 L 571.00 317.00 L 571.00 316.00 L 571.00 315.00 L 571.00 314.00 L 571.00 313.00 L 571.00 312.00 L 571.00 311.00 L 571.00 310.00 L 571.00 309.00 L 571.00 308.00 L 571.00 307.00 L 571.00 306.00 L 571.00 305.00 L 571.00 304.00 L 571.00 303.00 L 571.00 302.00 L 571.00 301.00 L 571.00 300.00 L 571.00 299.00 L 571.00 298.00 L 571.00 297.00 L 571.00 296.00 L 571.00 295.00 L 571.00 294.00 L 571.00 293.00 L 571.00 292.00 L 571.00 291.00 L 571.00 290.00 L 571.00 289.00 L 571.00 288.00 L 571.00 287.00 L 571.00 286.00 L 571.00 285.00 L 571.00 284.00 L 571.00 283.00 L 571.00 282.00 L 571.00 281.00 L 571.00 280.00 L 571.00 279.00 L 571.00 278.00 L 571.00 277.00 L 571.00 276.00 L 571.00 275.00 L 571.00 274.00 L 571.00 273.00 L 571.00 272.00 L 571.00 271.00 L 571.00 270.00 L 571.00 269.00 L 571.00 268.00 L 571.00 267.00 L 571.00 266.00 L 571.00 265.00 L 571.00 264.00 L 571.00 263.00 L 571.00 262.00 L 571.00 261.00 L 571.00 260.00 L 571.00 259.00 L 571.00 258.00 L 571.00 257.00 L 571.00 256.00 L 571.00 255.00 L 571.00 254.00 L 571.00 253.00 L 571.00 252.00 L 571.00 251.00 L 571.00 250.00 L 571.00 249.00 L 571.00 248.00 L 571.00 247.00 L 571.00 246.00 L 571.00 245.00 L 571.00 244.00 L 571.00 243.00 L 571.00 242.00 L 571.00 241.00 L 571.00 240.00 L 571.00 239.00 L 571.00 238.00 L 571.00 237.00 L 571.00 236.00 L 571.00 235.00 L 571.00 234.00 L 571.00 233.00 L 571.00 232.00 L 571.00 231.00 L 571.00 230.00 L 571.00 229.00 L 571.00 228.00 L 571.00 227.00 L 571.00 226.00 L 571.00 225.00 L 571.00 224.00 L 571.00 223.00 L 571.00 222.00 L 571.00 221.00 L 571.00 220.00 L 571.00 219.00 L 571.00 218.00 L 571.00 217.00 L 571.00 216.00 L 571.00 215.00 L 571.00 214.00 L 571.00 213.00 L 571.00 212.00 L 571.00 211.00 L 571.00 210.00 L 571.00 209.00 L 571.00 208.00 L 571.00 207.00 L 571.00 206.00 L 571.00 205.00 L 571.00 204.00 L 571.00 203.00 L 571.00 202.00 L 571.00 201.00 L 571.00 200.00 L 571.00 199.00 L 571.00 198.00 L 571.00 197.00 L 571.00 196.00 L 571.00 195.00 L 571.00 194.00 L 571.00 193.00 L 571.00 192.00 L 571.00 191.00 L 571.00 190.00 L 571.00 189.00 L 571.00 188.00 L 571.00 187.00 L 571.00 186.00 L 571.00 185.00 L 571.00 184.00 L 571.00 183.00 L 571.00 182.00 L 571.00 181.00 L 571.00 180.00 L 571.00 179.00 L 571.00 178.00 L 571.00 177.00 L 571.00 176.00 L 571.00 175.00 L 571.00 174.00 L 571.00 173.00 L 571.00 172.00 L 571.00 171.00 L 571.00 170.00 L 571.00 169.00 L 571.00 168.00 L 571.00 167.00 L 571.00 166.00 L 571.00 165.00 L 571.00 164.00 L 571.00 163.00 L 571.00 162.00 L 571.00 161.00 L 571.00 160.00 L 571.00 159.00 L 571.00 158.00 L 571.00 157.00 L 571.00 156.00 L 571.00 155.00 L 571.00 154.00 L 571.00 153.00 L 571.00 152.00 L 571.00 151.00 L 571.00 150.00 L 571.00 149.00 L 571.00 148.00 L 571.00 147.00 L 571.00 146.00 L 571.00 145.00 L 571.00 144.00 L 571.00 143.00 L 571.00 142.00 L 571.00 141.00 L 571.00 140.00 L 571.00 139.00 L 571.00 138.00 L 571.00 137.00 L 571.00 136.00 L 571.00 135.00 L 571.00 134.00 L 571.00 133.00 L 571.00 132.00 L 571.00 131.00 L 571.00 130.00 L 571.00 129.00 L 571.00 128.00 L 571.00 127.00 L 571.00 126.00 L 571.00 125.00 L 571.00 124.00 L 571.00 123.00 L 571.00 122.00 L 571.00 121.00 L 571.00 120.00 L 571.00 119.00 L 571.00 118.00 L 571.00 117.00 L 571.00 116.00 L 571.00 115.00 L 571.00 114.00 L 571.00 113.00 L 571.00 112.00 L 571.00 111.00 L 571.00 110.00 L 571.00 109.00 L 571.00 108.00 L 571.00 107.00 L 571.00 106.00 L 571.00 105.00 L 571.00 104.00 L 571.00 103.00 L 571.00 102.00 L 571.00 101.00 L 571.00 100.00 L 571.00 99.00 L 571.00 98.00 L 571.00 97.00 L 571.00 96.00 L 571.00 95.00 L 571.00 94.00 L 571.00 93.00 L 571.00 92.00 L 571.00 91.00 L 571.00 90.00 L 571.00 89.00 L 571.00 88.00 L 571.00 87.00 L 571.00 86.00 L 571.00 85.00 L 571.00 84.00 L 571.00 83.00 L 571.00 82.00 L 571.00 81.00 L 571.00 80.00 L 571.00 79.00 L 571.00 78.00 L 571.00 77.00 L 571.00 76.00 L 571.00 75.00 L 571.00 74.00 L 571.00 73.00 L 571.00 72.00 L 571.00 71.00 L 571.00 70.00 L 571.00 69.00 L 571.00 68.00 L 571.00 68.00 L 570.00 68.00 L 569.00 68.00 L 568.00 68.00 L 567.00 68.00 L 566.00 68.00 L 565.00 68.00 L 564.00 68.00 L 563.00 68.00 L 562.00 68.00 L 561.00 68.00 L 560.00 68.00 L 559.00 68.00 L 558.00 68.00 L 557.00 68.00 L 556.00 68.00 L 555.00 68.00 L 554.00 68.00 L 553.00 68.00 L 552.00 68.00 L 551.00 68.00 L 550.00 68.00 L 549.00 68.00 L 548.00 68.00 L 547.00 68.00 L 546.00 68.00 L 545.00 68.00 L 544.00 68.00 L 543.00 68.00 L 542.00 68.00 L 541.00 68.00 L 540.00 68.00 L 539.00 68.00 L 538.00 68.00 L 537.00 68.00 L 536.00 68.00 L 535.00 68.00 L 534.00 68.00 L 534.00 68.00 L 534.00 69.00 L 534.00 70.00 L 534.00 71.00 L 534.00 72.00 L 534.00 73.00 L 534.00 74.00 L 534.00 75.00 L 534.00 76.00 L 534.00 77.00 L 534.00 78.00 L 534.00 79.00 L 534.00 80.00 L 534.00 81.00 L 534.00 82.00 L 534.00 83.00 L 534.00 84.00 L 534.00 85.00 L 534.00 86.00 L 534.00 87.00 L 534.00 88.00 L 534.00 89.00 L 534.00 90.00 L 534.00 91.00 L 534.00 92.00 L 534.00 93.00 L 534.00 94.00 L 534.00 95.00 L 534.00 96.00 L 534.00 97.00 L 534.00 98.00 L 534.00 99.00 L 534.00 100.00 L 534.00 101.00 L 534.00 102.00 L 534.00 103.00 L 534.00 104.00 L 534.00 105.00 L 534.00 106.00 L 534.00 107.00 L 534.00 108.00 L 534.00 109.00 L 534.00 110.00 L 534.00 111.00 L 534.00 112.00 L 534.00 113.00 L 534.00 114.00 L 534.00 115.00 L 534.00 116.00 L 534.00 117.00 L 534.00 118.00 L 534.00 119.00 L 534.00 120.00 L 534.00 121.00 L 534.00 122.00 L 534.00 123.00 L 534.00 124.00 L 534.00 125.00 L 534.00 126.00 L 534.00 127.00 L 534.00 128.00 L 534.00 129.00 L 534.00 130.00 L 534.00 131.00 L 534.00 132.00 L 534.00 133.00 L 534.00 134.00 L 534.00 135.00 L 534.00 136.00 L 534.00 137.00 L 534.00 138.00 L 534.00 139.00 L 534.00 140.00 L 534.00 141.00 L 534.00 142.00 L 534.00 143.00 L 534.00 144.00 L 534.00 145.00 L 534.00 146.00 L 534.00 147.00 L 534.00 148.00 L 534.00 149.00 L 534.00 150.00 L 534.00 151.00 L 534.00 152.00 L 534.00 153.00 L 534.00 154.00 L 534.00 155.00 L 534.00 156.00 L 534.00 157.00 L 534.00 158.00 L 534.00 159.00 L 534.00 160.00 L 534.00 161.00 L 534.00 162.00 L 534.00 163.00 L 534.00 164.00 L 534.00 165.00 L 534.00 166.00 L 534.00 167.00 L 534.00 168.00 L 534.00 169.00 L 534.00 170.00 L 534.00 171.00 L 534.00 172.00 L 534.00 173.00 L 534.00 174.00 L 534.00 175.00 L 534.00 176.00 L 534.00 177.00 L 534.00 178.00 L 534.00 179.00 L 534.00 180.00 L 534.00 181.00 L 534.00 182.00 L 534.00 183.00 L 534.00 184.00 L 534.00 185.00 L 534.00 186.00 L 534.00 187.00 L 534.00 188.00 L 534.00 189.00 L 534.00 190.00 L 534.00 191.00 L 534.00 192.00 L 534.00 193.00 L 534.00 194.00 L 534.00 195.00 L 534.00 196.00 L 534.00 197.00 L 534.00 198.00 L 534.00 199.00 L 534.00 200.00 L 534.00 201.00 L 534.00 202.00 L 534.00 203.00 L 534.00 204.00 L 534.00 205.00 L 534.00 206.00 L 534.00 207.00 L 534.00 208.00 L 534.00 209.00 L 534.00 210.00 L 534.00 211.00 L 534.00 212.00 L 534.00 213.00 L 534.00 214.00 L 534.00 215.00 L 534.00 216.00 L 534.00 217.00 L 534.00 218.00 L 534.00 219.00 L 534.00 220.00 L 534.00 221.00 L 534.00 222.00 L 534.00 223.00 L 534.00 224.00 L 534.00 225.00 L 534.00 226.00 L 534.00 227.00 L 534.00 228.00 L 534.00 229.00 L 534.00 230.00 L 534.00 231.00 L 534.00 232.00 L 534.00 233.00 L 534.00 234.00 L 534.00 235.00 L 534.00 236.00 L 534.00 237.00 L 534.00 238.00 L 534.00 239.00 L 534.00 240.00 L 534.00 241.00 L 534.00 242.00 L 534.00 243.00 L 534.00 244.00 L 534.00 245.00 L 534.00 246.00 L 534.00 247.00 L 534.00 248.00 L 534.00 249.00 L 534.00 250.00 L 534.00 251.00 L 534.00 252.00 L 534.00 253.00 L 534.00 254.00 L 534.00 255.00 L 534.00 256.00 L 534.00 257.00 L 534.00 258.00 L 534.00 259.00 L 534.00 260.00 L 534.00 261.00 L 534.00 262.00 L 534.00 263.00 L 534.00 264.00 L 534.00 265.00 L 534.00 266.00 L 534.00 267.00 L 534.00 268.00 L 534.00 269.00 L 534.00 270.00 L 534.00 271.00 L 534.00 272.00 L 534.00 273.00 L 534.00 274.00 L 534.00 275.00 L 534.00 276.00 L 534.00 277.00 L 534.00 278.00 L 534.00 279.00 L 534.00 280.00 L 534.00 281.00 L 534.00 282.00 L 534.00 283.00 L 534.00 284.00 L 534.00 285.00 L 534.00 286.00 L 534.00 287.00 L 534.00 288.00 L 534.00 289.00 L 534.00 290.00 L 534.00 291.00 L 534.00 292.00 L 534.00 293.00 L 534.00 294.00 L 534.00 295.00 L 534.00 296.00 L 534.00 297.00 L 534.00 298.00 L 534.00 299.00 L 534.00 300.00 L 534.00 301.00 L 534.00 302.00 L 534.00 303.00 L 534.00 304.00 L 534.00 305.00 L 534.00 306.00 L 534.00 307.00 L 534.00 308.00 L 534.00 309.00 L 534.00 310.00 L 534.00 311.00 L 534.00 312.00 L 534.00 313.00 L 534.00 314.00 L 534.00 315.00 L 534.00 316.00 L 534.00 317.00 L 534.00 318.00 L 534.00 319.00 L 534.00 320.00 L 534.00 321.00 L 534.00 322.00 L 534.00 323.00 L 534.00 324.00 L 534.00 325.00 L 534.00 326.00 L 534.00 327.00 L 534.00 328.00 L 534.00 329.00 L 534.00 330.00 L 534.00 331.00 L 534.00 332.00 L 534.00 333.00 L 534.00 334.00 L 534.00 335.00 L 534.00 336.00 L 534.00 337.00 L 534.00 338.00 L 534.00 339.00 L 534.00 340.00 L 534.00 341.00 L 534.00 342.00 L 534.00 343.00 L 534.00 344.00 L 534.00 345.00 L 534.00 346.00 L 534.00 347.00 L 534.00 348.00 L 534.00 349.00 L 534.00 350.00 L 534.00 351.00 L 534.00 352.00 L 534.00 353.00 L 534.00 354.00 L 534.00 355.00 L 534.00 356.00 L 534.00 357.00 L 534.00 358.00 L 534.00 359.00 L 534.00 360.00 L 534.00 361.00 L 534.00 362.00 L 534.00 363.00 L 534.00 364.00 L 534.00 365.00 L 534.00 366.00 L 534.00 367.00 L 534.00 368.00 L 534.00 369.00 L 534.00 370.00 L 534.00 371.00 L 534.00 372.00 L 534.00 373.00 L 534.00 374.00 L 534.00 375.00 L 534.00 376.00 L 534.00 377.00 L 534.00 377.00 L 535.00 377.00 L 536.00 377.00 L 537.00 377.00 L 538.00 377.00 L 539.00 377.00 L 540.00 377.00 L 541.00 377.00 L 542.00 377.00 L 543.00 377.00 L 544.00 377.00 L 545.00 377.00 L 546.00 377.00 L 547.00 377.00 L 548.00 377.00 L 549.00 377.00 L 550.00 377.00 L 551.00 377.00 L 552.00 377.00 L 553.00 377.00 L 554.00 377.00 L 555.00 377.00 L 556.00 377.00 L 557.00 377.00 L 558.00 377.00 L 559.00 377.00 L 560.00 377.00 L 561.00 377.00 L 562.00 377.00 L 563.00 377.00 L 564.00 377.00 L 565.00 377.00 L 566.00 377.00 L 567.00 377.00 L 568.00 377.00 L 569.00 377.00 L 570.00 377.00 L 571.00 377.00 L 571.00 377.00 Z" fill="white"/>
</svg>
