<svg xmlns="http://www.w3.org/2000/svg"  viewBox="0 0 4335 4335" width="150px" height="150px" fill-rule="evenodd" clip-rule="evenodd" image-rendering="optimizeQuality" shape-rendering="geometricPrecision" text-rendering="geometricPrecision"><defs/><g id="Layer_x0020_1"><path fill="red" d="M-4152 11908l0 620 -904 0 -91 1634c0,0 -39,522 295,650 335,128 512,-69 561,-266 49,-197 49,-197 49,-197l167 0c0,0 -10,660 -374,985 -364,325 -926,197 -1073,-345 -148,-542 -108,-1260 -30,-1782 43,-284 71,-522 88,-679l-864 0 -317 2609c0,0 -98,414 -463,414 -364,0 -463,-354 -305,-660 158,-305 404,-207 473,-807 51,-444 150,-1194 199,-1556l-228 0c0,0 -414,-10 -581,246 -167,256 -167,256 -167,256l-148 0c0,0 128,-1113 1073,-1113 945,0 2639,-10 2639,-10z"/><path fill-rule="nonzero" d="M1612 1736c47,51 83,101 107,152 17,35 45,127 84,276l130 -193c34,-46 76,-91 125,-134 49,-42 92,-71 130,-87 23,-10 49,-15 78,-15 42,0 76,11 101,33 25,23 37,50 37,82 0,37 -8,62 -22,76 -28,24 -59,36 -95,36 -20,0 -43,-4 -66,-13 -46,-15 -77,-23 -93,-23 -23,0 -51,13 -84,41 -61,50 -134,148 -219,294l121 505c19,76 35,122 48,137 13,15 25,22 38,22 21,0 45,-11 73,-34 55,-44 101,-102 140,-174l51 27c-62,114 -140,209 -236,284 -54,42 -99,64 -137,64 -55,0 -98,-30 -131,-90 -21,-38 -62,-203 -126,-495 -152,265 -274,435 -366,511 -59,49 -117,73 -172,73 -39,0 -74,-14 -107,-42 -23,-22 -35,-51 -35,-87 0,-32 11,-59 32,-81 22,-22 47,-32 79,-32 31,0 64,15 99,47 25,22 44,34 58,34 12,0 27,-8 45,-23 45,-37 108,-116 186,-238 78,-122 130,-210 154,-264 -59,-237 -91,-363 -96,-377 -22,-63 -51,-108 -86,-135 -36,-26 -88,-39 -158,-39 -22,0 -47,1 -76,3l0 -54 388 -69zm1553 518l-496 0 0 -27c251,-221 418,-394 499,-519 37,-58 56,-119 56,-183 0,-51 -15,-92 -47,-124 -31,-32 -71,-48 -121,-48 -68,0 -125,33 -169,99l-26 -12c25,-63 61,-112 109,-147 48,-35 99,-52 155,-52 63,0 116,21 159,65 43,43 64,96 64,157 0,43 -8,83 -23,119 -24,57 -67,121 -130,192 -95,108 -223,233 -382,374l250 0c40,0 73,-8 99,-25 26,-16 44,-39 56,-66l30 0 -83 198z"/></g></svg>